<svg width="230" height="24" viewBox="0 0 230 24" fill="none" xmlns="http://www.w3.org/2000/svg">
<path d="M13 0L8.98166 7.90286L0 9.16286L6.5 15.3171L4.96332 24L13 19.9029L21.0367 24L19.5 15.3171L26 9.17143L17.0183 7.90286L13 0Z" fill="#D1A954"/>
<path d="M64 0L59.9817 7.90286L51 9.16286L57.5 15.3171L55.9633 24L64 19.9029L72.0367 24L70.5 15.3171L77 9.17143L68.0183 7.90286L64 0Z" fill="#D1A954"/>
<path d="M115 0L110.982 7.90286L102 9.16286L108.5 15.3171L106.963 24L115 19.9029L123.037 24L121.5 15.3171L128 9.17143L119.018 7.90286L115 0Z" fill="#D1A954"/>
<path d="M166 0L161.982 7.90286L153 9.16286L159.5 15.3171L157.963 24L166 19.9029L174.037 24L172.5 15.3171L179 9.17143L170.018 7.90286L166 0Z" fill="#D1A954"/>
<path d="M217 0L212.982 7.90286L204 9.16286L210.5 15.3171L208.963 24L217 19.9029L225.037 24L223.5 15.3171L230 9.17143L221.018 7.90286L217 0Z" fill="#D1A954"/>
</svg>
